<svg width="142" height="142" viewBox="0 0 142 142" fill="none" xmlns="http://www.w3.org/2000/svg">
<g filter="url(#filter0_d_490_1314)">
<path d="M74.9957 65.748C74.5837 65.3361 73.9146 65.3361 73.5033 65.748L72.4351 66.8162L75.2482 69.6293L76.317 68.5605C76.7288 68.1483 76.7288 67.4801 76.317 67.0682L74.9957 65.748ZM66.1304 73.1191C66.0308 73.2129 65.9664 73.3418 65.9371 73.4766L65.3792 76.2662C65.3301 76.512 65.5469 76.729 65.7928 76.6798L68.5825 76.122C68.7185 76.0945 68.8435 76.0277 68.9417 75.9298L74.2491 70.6229L71.439 67.8105L66.1304 73.1191ZM70.9996 58.8223C62.7144 58.8223 56.0523 64.2791 56.0523 71.0098C56.0523 73.8 57.2189 76.3564 59.1525 78.4102C58.2812 80.7246 56.4648 82.6805 56.4355 82.7021C56.0475 83.1123 55.9449 83.7129 56.1646 84.2256C56.3404 84.791 56.8422 85.125 57.4058 85.125C61.0088 85.125 63.7984 83.6162 65.5562 82.415C67.2478 82.9424 69.0812 83.25 70.9996 83.25C79.2847 83.25 85.9469 77.7932 85.9469 71.1152C85.9469 64.4373 79.2847 58.8223 70.9996 58.8223ZM70.9996 80.4375C69.4322 80.4375 67.8871 80.1958 66.4082 79.7273L65.0752 79.3099L63.9332 80.1152C63.0982 80.7082 61.9486 81.368 60.5646 81.8144C60.9966 81.1043 61.4066 80.3057 61.7289 79.456L62.3511 77.8154L61.1429 76.5334C60.09 75.4043 58.8156 73.541 58.8156 71.0625C58.8156 65.8916 64.2789 61.6875 70.9504 61.6875C77.6711 61.6875 83.0851 65.8916 83.0851 71.0625C83.0851 76.2334 77.7262 80.4375 70.9996 80.4375Z" fill="#5BC142"/>
<rect x="45.5" y="45.5" width="51" height="51" rx="9.5" stroke="#5BC142" shape-rendering="crispEdges"/>
</g>
<defs>
<filter id="filter0_d_490_1314" x="0" y="0" width="142" height="142" filterUnits="userSpaceOnUse" color-interpolation-filters="sRGB">
<feFlood flood-opacity="0" result="BackgroundImageFix"/>
<feColorMatrix in="SourceAlpha" type="matrix" values="0 0 0 0 0 0 0 0 0 0 0 0 0 0 0 0 0 0 127 0" result="hardAlpha"/>
<feOffset/>
<feGaussianBlur stdDeviation="22.5"/>
<feComposite in2="hardAlpha" operator="out"/>
<feColorMatrix type="matrix" values="0 0 0 0 0 0 0 0 0 0 0 0 0 0 0 0 0 0 0.04 0"/>
<feBlend mode="normal" in2="BackgroundImageFix" result="effect1_dropShadow_490_1314"/>
<feBlend mode="normal" in="SourceGraphic" in2="effect1_dropShadow_490_1314" result="shape"/>
</filter>
</defs>
</svg>
